<svg xmlns="http://www.w3.org/2000/svg" xmlns:xlink="http://www.w3.org/1999/xlink" viewBox="0 0 1417.32 1463.22"><defs><style>.cls-1{fill:none;}.cls-2{fill:#fff;}.cls-3{fill:#9b1448;}.cls-4{fill:#9b1047;}.cls-5{fill:url(#Novo_padrão_2);}</style><pattern id="Novo_padrão_2" data-name="Novo padrão 2" width="255.12" height="255.12" patternUnits="userSpaceOnUse" viewBox="0 0 255.12 255.12"><rect class="cls-1" width="255.12" height="255.12"/><rect class="cls-2" width="255.12" height="255.12"/><path class="cls-3" d="M106.4,6.35c1.91.73,3,1.74,3,2.85a2.52,2.52,0,0,1-1.27,2,.32.32,0,0,1-.44-.07.31.31,0,0,1,.08-.43,2.05,2.05,0,0,0,1-1.48c0-1-1.36-2-3.67-2.64a21,21,0,0,1-1,2.69,19.08,19.08,0,0,1,1,2.6,11.85,11.85,0,0,0,1.66-.59.32.32,0,0,1,.41.15.31.31,0,0,1-.16.41,10.71,10.71,0,0,1-1.74.62c.1.42.19.82.25,1.21.32,2,0,3.43-1,4a1.89,1.89,0,0,1-.95.24,5.16,5.16,0,0,1-3-1.37q-.45-.37-.9-.81c-1.4,1.37-2.79,2.17-3.89,2.17a1.89,1.89,0,0,1-1-.24c-1-.55-1.31-2-1-4,.06-.39.15-.79.25-1.21a11.27,11.27,0,0,1-1.16-.38c-1.91-.73-3-1.75-3-2.85s1-2.12,3-2.85A10.7,10.7,0,0,1,94,6a10.49,10.49,0,0,1-.33-1.79.31.31,0,0,1,.62-.06,10.3,10.3,0,0,0,.31,1.69,19.57,19.57,0,0,1,2.82-.45A19,19,0,0,1,99.18,3.2c-.3-.29-.59-.56-.89-.8C96.94,1.31,95.75.91,95,1.32a2.07,2.07,0,0,0-.77,1.62.31.31,0,0,1-.34.28.32.32,0,0,1-.28-.34A2.53,2.53,0,0,1,94.73.79c1-.56,2.36-.15,4,1.13a11.76,11.76,0,0,1,.93.84C101,1.36,102.44.53,103.55.53a1.9,1.9,0,0,1,1,.25c1,.55,1.31,2,1,4-.06.39-.15.79-.25,1.21a11.27,11.27,0,0,1,1.16.38Zm-2.85-5.19a5.38,5.38,0,0,0-3.17,1.73l-.33.31a20.54,20.54,0,0,1,1.75,2.16,20.09,20.09,0,0,1,2.84.45c.1-.39.18-.78.24-1.14.27-1.73,0-2.95-.69-3.36a1.32,1.32,0,0,0-.64-.15ZM98.23,5.31c.46,0,.93,0,1.41,0s.91,0,1.35,0a19.59,19.59,0,0,0-1.38-1.66A19.78,19.78,0,0,0,98.23,5.31Zm1.38,9.5c.48-.52,1-1.1,1.43-1.72-.46,0-.93,0-1.4,0s-1,0-1.46,0c.47.62.95,1.2,1.43,1.72Zm0-2.3c.63,0,1.26,0,1.86-.07.35-.51.69-1,1-1.59s.6-1.07.85-1.6c-.26-.57-.56-1.13-.89-1.7s-.65-1.09-1-1.59c-.58,0-1.19-.07-1.82-.07s-1.28,0-1.87.07c-.35.51-.69,1-1,1.58s-.63,1.14-.9,1.7c.26.54.55,1.09.86,1.62s.65,1.08,1,1.58c.61,0,1.25.07,1.92.07Zm-3.45-1.34c-.23-.39-.44-.79-.65-1.19a20.64,20.64,0,0,0-.74,2,17.57,17.57,0,0,0,2.12.37C96.67,12,96.43,11.58,96.19,11.17ZM97,6a18.41,18.41,0,0,0-2.21.38,20.09,20.09,0,0,0,.78,2.1c.21-.42.44-.85.69-1.28s.49-.81.74-1.2ZM94.2,11.84a19.59,19.59,0,0,1,1-2.6,20.8,20.8,0,0,1-1-2.67c-2.28.64-3.63,1.66-3.63,2.63S91.9,11.19,94.2,11.84Zm1.52,5.4a5.43,5.43,0,0,0,3.18-1.73l.28-.26A19.77,19.77,0,0,1,97.37,13a20,20,0,0,1-2.73-.44,8.29,8.29,0,0,0-.24,1.14c-.28,1.72,0,2.95.68,3.35a1.24,1.24,0,0,0,.64.16Zm8.88-4.64a22,22,0,0,1-2.75.43,19.93,19.93,0,0,1-1.8,2.22c.28.28.57.53.85.76,1.36,1.1,2.54,1.49,3.25,1.08s1-1.63.69-3.35Q104.75,13.18,104.6,12.6Zm-.17-.6a19.88,19.88,0,0,0-.74-2c-.21.39-.42.79-.65,1.19s-.48.81-.74,1.19a21.46,21.46,0,0,0,2.13-.36Zm0-5.6A20.94,20.94,0,0,0,102.25,6c.26.39.51.8.75,1.21s.47.85.69,1.28A18.32,18.32,0,0,0,104.47,6.4Z"/><path class="cls-3" d="M101.19,9.2a1.56,1.56,0,1,1-1.55-1.55A1.55,1.55,0,0,1,101.19,9.2Zm-.62,0a.94.94,0,1,0-.93.93A.93.93,0,0,0,100.57,9.2Z"/><g id="outline"><path class="cls-3" d="M205.74,102.85a4,4,0,0,1,1,.65,3.93,3.93,0,0,1,.38,5.55,12.45,12.45,0,0,0-3.08,8.19,12.71,12.71,0,0,1-1.66,6.28,3.08,3.08,0,0,1-2.68,1.55h-2.56a1.74,1.74,0,0,1-1.63,1.16H192.3a1.74,1.74,0,0,1-1.7-1.4l-1.44-7.18a6.54,6.54,0,0,1-.12-1.25v-9.29a2.88,2.88,0,0,1,.3-1.29l.85-1.7V99.35a3.42,3.42,0,0,1-1.52.82l-2.38.6h-.14a.55.55,0,0,1-.55-.76l.48-1.44a3.49,3.49,0,0,1,1.43-1.84,3.57,3.57,0,0,1-1.43-1.84l-.48-1.45a.5.5,0,0,1,0-.32.57.57,0,0,1,.7-.42l2.38.59a3.63,3.63,0,0,1,1.52.82v-2a.58.58,0,0,1,.58-.58h11a.58.58,0,0,1,.58.58V100l1.52,2,1.88.8ZM201.65,101l-4.16,3.2,3.71,3.36,1.65-5Zm-.47-2.53-4.05,3.11V103l4.05-3.12Zm-.72,11.31.34-1-3.67-3.32v1.33ZM196,107.63v-1.18l-.7.54Zm-5.79.38v1.43L196,105v-1.43Zm1.16-9.54v2.06l3.06,2.78L196,102.1V98.47Zm0,5,1.33,1.21.79-.6-2.12-1.94ZM196,96.16h-2.42a1.65,1.65,0,0,1,0,1.16H196Zm-4,0a.58.58,0,1,0,.58.58A.58.58,0,0,0,191.93,96.16Zm-.78,8.64-.77,1.54a.42.42,0,0,0,0,.1l1.41-1.09Zm-1,6.85,2.25,4.94a1.64,1.64,0,0,0,3,0l1.22-2.84-.64-4.49-1.68-1.52-4.15,3.19Zm7.79,3.11a12,12,0,0,0,2.07-3.76l-2.92-2.65v.58l.85,5.83Zm-.85-22.07v7.45L201.18,97V92.69Zm-5.78,0V95H196V92.69Zm-1.91,3.47h.68a2.36,2.36,0,0,0-1.73-1.73h0L187,94.08l.15.45A2.38,2.38,0,0,0,189.44,96.16Zm.68,1.16h-.68A2.35,2.35,0,0,0,187.18,99l-.15.44,1.36-.34h0A2.37,2.37,0,0,0,190.12,97.32ZM197,117.69a4.83,4.83,0,0,0,0-1.42l-.05-.35-.46,1.1a2.8,2.8,0,0,1-5.12,0l-1.2-2.63v2a7,7,0,0,0,.1,1l1.44,7.17a.59.59,0,0,0,.57.47h3.24a.57.57,0,0,0,.57-.5l0-.14Zm9.25-9.4a2.91,2.91,0,0,0,.46-.73,2.79,2.79,0,0,0-1.46-3.65l-1.44-.61-2.68,8a13.22,13.22,0,0,1-3,4.93,5.9,5.9,0,0,1,0,1.57l-.81,6.07h2.36a1.93,1.93,0,0,0,1.67-1,11.67,11.67,0,0,0,1.52-5.71,13.59,13.59,0,0,1,3.36-8.95Z"/></g><path class="cls-3" d="M197.6,198.75a.38.38,0,1,1-.38-.38A.38.38,0,0,1,197.6,198.75Z"/><path class="cls-3" d="M201.4,198v10.63a1.14,1.14,0,0,1-1.14,1.14H183.1a1.14,1.14,0,0,1-1.14-1.14V198a1.14,1.14,0,0,1,1.14-1.14h.38v-.38a1.14,1.14,0,0,1,1.14-1.14h.75a1.14,1.14,0,0,1,1.14,1.14v.38h.76l1.2-2.41a1.14,1.14,0,0,1,1-.63h4.38a1.14,1.14,0,0,1,1,.63l1.2,2.41h4.17A1.14,1.14,0,0,1,201.4,198Zm-13.28-1.14h7.12l-1-2.07a.39.39,0,0,0-.34-.21h-4.38a.39.39,0,0,0-.34.21Zm-3.88,0h1.51v-.38a.38.38,0,0,0-.38-.38h-.75a.38.38,0,0,0-.38.38ZM182.72,206h4.8a4.93,4.93,0,0,1,0-5.32h-4.8Zm4.78-2.66a4.18,4.18,0,1,0,4.18-4.17A4.18,4.18,0,0,0,187.5,203.3Zm13.14,3.42h-5.4a4.93,4.93,0,0,1-7.12,0h-5.4v1.9a.38.38,0,0,0,.38.38h17.16a.38.38,0,0,0,.38-.38Zm0-6.08h-4.8a4.93,4.93,0,0,1,0,5.32h4.8Zm0-2.65a.38.38,0,0,0-.38-.38H183.1a.38.38,0,0,0-.38.38v1.89h5.4a5,5,0,0,1,7.12,0h5.4Z"/><path class="cls-3" d="M193.2,195.71a.38.38,0,0,1-.38.38h-2.28a.38.38,0,0,1,0-.76h2.28A.38.38,0,0,1,193.2,195.71Z"/><path class="cls-3" d="M195.1,203.3a3.42,3.42,0,1,1-3.42-3.42A3.42,3.42,0,0,1,195.1,203.3Zm-.76,0a2.66,2.66,0,1,0-2.66,2.66A2.67,2.67,0,0,0,194.34,203.3Z"/><path class="cls-3" d="M192.06,201.78a.38.38,0,0,1-.38.38,1.14,1.14,0,0,0-1.14,1.14.38.38,0,0,1-.76,0,1.91,1.91,0,0,1,1.9-1.9A.38.38,0,0,1,192.06,201.78Z"/><path class="cls-3" d="M199.88,198.75a.38.38,0,0,1-.38.38h-.76a.38.38,0,0,1,0-.76h.76A.38.38,0,0,1,199.88,198.75Z"/><path class="cls-3" d="M154,48.22a1.84,1.84,0,0,1-1.17,1.12,2.53,2.53,0,0,1-1.55-.17A11.34,11.34,0,0,1,148.15,47,6.37,6.37,0,0,0,141,47a11.46,11.46,0,0,1-3.1,2.21,2.42,2.42,0,0,1-1.56.17,1.85,1.85,0,0,1-1.16-1.09,6.55,6.55,0,0,1-.34-2.77,18.53,18.53,0,0,1,.53-3.52,12.9,12.9,0,0,1,1.09-3c1.7-3,3.55-2.52,5.75-2a17.08,17.08,0,0,0,2.24.44h.24a16.61,16.61,0,0,0,2.23-.44c2.21-.58,4.05-1,5.75,1.94a13.2,13.2,0,0,1,1.09,3,18.33,18.33,0,0,1,.54,3.52A6.7,6.7,0,0,1,154,48.22Zm-.56-2.71a18.13,18.13,0,0,0-.51-3.35,11.24,11.24,0,0,0-1-2.74c-1.33-2.41-2.89-2-4.73-1.53a14.19,14.19,0,0,1-2.4.46h-.37a14.21,14.21,0,0,1-2.37-.46c-1.85-.49-3.4-.88-4.73,1.53a10.75,10.75,0,0,0-1,2.74,16.81,16.81,0,0,0-.51,3.35,5.76,5.76,0,0,0,.24,2.32,1,1,0,0,0,.58.61,1.47,1.47,0,0,0,1-.12,10.19,10.19,0,0,0,2.81-2,6.37,6.37,0,0,1,4.2-1.34,6.06,6.06,0,0,1,4.17,1.38,9.88,9.88,0,0,0,2.81,2,1.76,1.76,0,0,0,1,.12,1,1,0,0,0,.58-.61A5.53,5.53,0,0,0,153.42,45.51Z"/><path class="cls-3" d="M142.77,41.72a1.41,1.41,0,0,1-.41,1,1.35,1.35,0,0,1-.88.41,1.42,1.42,0,0,1-.41.87,1.44,1.44,0,0,1-1,.41,1.37,1.37,0,0,1-1-.41,1.28,1.28,0,0,1-.41-.87,1.38,1.38,0,0,1-.9-.41,1.47,1.47,0,0,1-.41-1,1.34,1.34,0,0,1,.41-1l0,0a1.51,1.51,0,0,1,.88-.39,1.37,1.37,0,0,1,.41-.87,1.45,1.45,0,0,1,1-.41,1.37,1.37,0,0,1,1,.41l0,0a1.37,1.37,0,0,1,.39.85,1.55,1.55,0,0,1,.88.42A1.42,1.42,0,0,1,142.77,41.72Zm-.88,0a.47.47,0,0,0-.14-.36.49.49,0,0,0-.36-.15h-.34a.47.47,0,0,1-.47-.46v-.34a.54.54,0,0,0-.12-.34l0,0a.49.49,0,0,0-.36-.15.5.5,0,0,0-.37.15.45.45,0,0,0-.14.36v.34a.46.46,0,0,1-.47.46h-.33a.56.56,0,0,0-.34.12l0,0a.47.47,0,0,0-.14.36.49.49,0,0,0,.14.34.5.5,0,0,0,.37.15h.33a.46.46,0,0,1,.47.46V43a.48.48,0,0,0,.14.36.5.5,0,0,0,.37.15.49.49,0,0,0,.36-.15.48.48,0,0,0,.14-.36v-.32a.46.46,0,0,1,.47-.46h.34a.49.49,0,0,0,.36-.15A.45.45,0,0,0,141.89,41.72Z"/><circle class="cls-3" cx="148.81" cy="40" r="0.85"/><circle class="cls-3" cx="148.81" cy="43.44" r="0.85"/><circle class="cls-3" cx="147.09" cy="41.72" r="0.85"/><circle class="cls-3" cx="150.53" cy="41.72" r="0.85"/><path class="cls-3" d="M54.74,128.12a.73.73,0,0,1-.63.36H20.82a.72.72,0,0,1-.62-.36.74.74,0,0,1,0-.72L36.83,97a.75.75,0,0,1,1.27,0L54.75,127.4A.74.74,0,0,1,54.74,128.12ZM22,127H32.16a10.56,10.56,0,0,1-5.25-8.89L22,127Zm14.7-18.22a9.12,9.12,0,0,0,0,18.18Zm0-8.63L32,108.88a10.52,10.52,0,0,1,4.76-1.52Zm1.45,7.18A10.51,10.51,0,0,1,43,108.87l-4.76-8.69Zm0,1.45V127a9.12,9.12,0,0,0,0-18.18ZM52.89,127,48,118.16A10.57,10.57,0,0,1,42.79,127Z"/><path class="cls-3" d="M254.84,29.6a1.62,1.62,0,0,1-.48,1.15,8,8,0,0,1-3.76,2.16.51.51,0,0,1-.26-1,7,7,0,0,0,3.3-1.89.62.62,0,0,0-.87-.87c-2.18,2.18-4.87,2-7.7,1.44.11.47.21.87.31,1.3a14.46,14.46,0,0,0,3.11.27.51.51,0,0,1,.53.5.5.5,0,0,1-.49.52,15.88,15.88,0,0,1-2.92-.21c.69,3.36,1,7.09-2,10.06-2.79,2.78-6.22,2.77-10.07,2,.47,2.89.43,6.1-2.22,8.75A1.63,1.63,0,0,1,229,51.46a5.59,5.59,0,0,0,.82-1l-5.93-5.93a5.59,5.59,0,0,0-1,.82A1.63,1.63,0,0,1,220.57,43c2.65-2.65,5.86-2.69,8.75-2.22a21.5,21.5,0,0,1-.45-3.19.51.51,0,1,1,1-.05c.27,5.28,3.7,10.8-.14,14.64a.62.62,0,0,0,.87.87c6.06-6.06-3.15-15.32,2.27-20.74,2.42-2.46,5.64-1.93,9-1.18-.1-.43-.19-.82-.29-1.32-3.34-.72-6.8-1.11-9.54,1.62A7.09,7.09,0,0,0,230,35.67a.51.51,0,0,1-.57.44.51.51,0,0,1-.44-.57,8.09,8.09,0,0,1,2.36-4.83c3-3,6.7-2.67,10.06-2-.46-2.89-.42-6.1,2.23-8.75a1.65,1.65,0,0,1,2.31,0,1.63,1.63,0,0,1,0,2.31,5.64,5.64,0,0,0-.82,1.05L251,29.26a5.64,5.64,0,0,0,1.05-.82A1.64,1.64,0,0,1,254.84,29.6Zm-25,13.55c-.1-.45-.2-.87-.3-1.3a15.63,15.63,0,0,0-2.75-.28,7.42,7.42,0,0,0-5.51,2.15.62.62,0,0,0,.87.87C224.34,42.41,227,42.58,229.85,43.15Zm.44,6.26a10.62,10.62,0,0,0-.19-5.17,10.62,10.62,0,0,0-5.17-.19Zm7.2-7.18-5.38-5.38a20.85,20.85,0,0,0,.72,4.66A20.85,20.85,0,0,0,237.49,42.23Zm3.45-1.16-7.67-7.67a5,5,0,0,0-1,2.15l6.55,6.55A4.93,4.93,0,0,0,240.94,41.07Zm1.74-2.86-6.55-6.55a4.82,4.82,0,0,0-2.14,1l7.67,7.67A4.82,4.82,0,0,0,242.68,38.21Zm-5.24-6.69,5.38,5.38a20.85,20.85,0,0,0-.72-4.66A20.85,20.85,0,0,0,237.44,31.52Zm7.74-9.95a.62.62,0,1,0-.87-.87c-6,6,3.11,15.37-2.27,20.75-2.45,2.44-5.59,1.93-9,1.17.14.59.22,1,.29,1.32,3.34.72,6.8,1.12,9.54-1.62C249,36.26,239.76,27,245.18,21.57ZM250,29.7l-5.36-5.36a10.62,10.62,0,0,0,.19,5.17A10.62,10.62,0,0,0,250,29.7Z"/><path class="cls-3" d="M111.22,176.11a1.54,1.54,0,1,1,1.54-1.54A1.54,1.54,0,0,1,111.22,176.11Zm0-1a.51.51,0,1,0-.51-.51A.51.51,0,0,0,111.22,175.08Z"/><path class="cls-3" d="M116.64,178.15a1.54,1.54,0,1,1-1.53,1.53A1.53,1.53,0,0,1,116.64,178.15Zm0,1a.52.52,0,1,0,.51.51A.51.51,0,0,0,116.64,179.17Z"/><path class="cls-3" d="M101,179.68a.52.52,0,1,0,.51.52A.51.51,0,0,0,101,179.68Z"/><path class="cls-3" d="M100.63,178.07a9.2,9.2,0,0,1,16.71-3.49.47.47,0,0,1,.08.38.51.51,0,0,1-.22.33l-6.59,4.39,6.59,4.4a.51.51,0,0,1,.22.33.47.47,0,0,1-.08.38,9.2,9.2,0,0,1-16.46-2.44.5.5,0,0,1,.34-.63.51.51,0,0,1,.64.34,8.19,8.19,0,0,0,14.34,2.58l-6.8-4.53a.53.53,0,0,1-.22-.43.5.5,0,0,1,.22-.42l6.8-4.53a8.18,8.18,0,0,0-14.57,3.51.51.51,0,1,1-1-.17Z"/><path class="cls-3" d="M189.21,63.41a1,1,0,1,1-1-1A1,1,0,0,1,189.21,63.41Zm-.72,0a.31.31,0,1,0-.31.31A.31.31,0,0,0,188.49,63.41Zm13.7-14.14v1.91a.36.36,0,0,1-.36.35h-2.4v1.66a.36.36,0,0,1-.72,0V51.31A1.91,1.91,0,1,0,201,53.19a2.07,2.07,0,0,0-.06-.5.36.36,0,0,1,.25-.44.37.37,0,0,1,.44.26,2.59,2.59,0,0,1,.09.68,2.63,2.63,0,0,1-2.63,2.63,2.66,2.66,0,0,1-2-.94h-7.26a.88.88,0,0,0-.61.25.85.85,0,0,0-.14.19l0,0a.88.88,0,0,0,.16,1,.85.85,0,0,0,.61.26h7.67a4.24,4.24,0,0,1,3.34,6.85s-.25.29-.34.39a4.24,4.24,0,0,1-3,1.24H190.2a2.64,2.64,0,1,1,0-3.37h7.26a.85.85,0,0,0,.61-.26.86.86,0,0,0,.25-.61.85.85,0,0,0-.86-.86h-7.67a4.25,4.25,0,1,1,0-8.49h7.26a2.64,2.64,0,0,1,1.66-.92V49.27a.36.36,0,0,1,.36-.36h2.76A.36.36,0,0,1,202.19,49.27ZM190.1,63.41a1.92,1.92,0,1,0-1.92,1.91A1.92,1.92,0,0,0,190.1,63.41Zm3.29-1h-2.76a2.73,2.73,0,0,1,0,1.95h2.76Zm3.16,0h-2.44v1.95h2.44Zm3.45.86-1.38-1.37s0,0-.05,0a1.55,1.55,0,0,1-1.11.46h-.19v1.95h.19a3.5,3.5,0,0,0,2.49-1Zm.45-4.31L199,60.44a1.84,1.84,0,0,1,0,.41,1.52,1.52,0,0,1-.06.42l1.46,1.46a3.55,3.55,0,0,0,.54-1.88A3.5,3.5,0,0,0,200.45,59Zm-3.18.29h.19a1.55,1.55,0,0,1,1.11.46l.05.06L200,58.41l-.05,0a3.5,3.5,0,0,0-2.49-1h-.19Zm-3.16,0h2.44v-2h-2.44Zm-3,0h2.23v-2h-2.23Zm-4.29-1.56,1.43-1.44a1.55,1.55,0,0,1-.09-.53,1.57,1.57,0,0,1,.08-.49l-1.44-1.45a3.48,3.48,0,0,0-.58,1.94A3.52,3.52,0,0,0,186.87,57.71Zm1.83-.82-1.37,1.37a3.5,3.5,0,0,0,2.46,1h.65v-2h-.65A1.6,1.6,0,0,1,188.7,56.89Zm1.74-4.68h-.65a3.51,3.51,0,0,0-2.49,1l1.38,1.37a1.55,1.55,0,0,1,1.11-.46h.65Zm2.95,0h-2.23v1.95h2.23Zm3.05,1a2.67,2.67,0,0,1,.18-1h-2.51v1.95h2.51A2.61,2.61,0,0,1,196.44,53.19Zm5-3.56h-2v1.19h2Z"/><path class="cls-3" d="M82.7,93.1h0v0h-.41L80.49,91.5l-1.77,1.64a.33.33,0,0,1-.42,0L76.53,91.5l-1.76,1.64a.33.33,0,0,1-.42,0L72.59,91.5l-1.77,1.64a.32.32,0,0,1-.41,0L68.64,91.5l-1.77,1.64h-.24a.32.32,0,0,1-.09,0h-.08l0,0h0v0h0v0h0v0h0v0h0v0h0V82a8.21,8.21,0,1,1,16.41,0V92.91h0v0h0v0h0v0h0v0h0v0h0Zm-2-2.23,1.47,1.35V82A7.6,7.6,0,1,0,67,82V92.22l1.46-1.35a.3.3,0,0,1,.41,0l1.77,1.63,1.77-1.63a.3.3,0,0,1,.41,0l1.77,1.63,1.77-1.63a.3.3,0,0,1,.41,0l1.77,1.63,1.77-1.63A.3.3,0,0,1,80.69,90.87Z"/><path class="cls-3" d="M72.89,81.55a1.81,1.81,0,1,1-.94-.94.31.31,0,0,1,.16.4.3.3,0,0,1-.4.15,1.38,1.38,0,0,0-.49-.1,1.24,1.24,0,1,0,1.11.73.32.32,0,0,1,.16-.4A.3.3,0,0,1,72.89,81.55Z"/><path class="cls-3" d="M79.58,81.55a1.83,1.83,0,1,1-1.67-1.09,1.79,1.79,0,0,1,.72.15.29.29,0,0,1,.16.4.3.3,0,0,1-.4.15,1.33,1.33,0,0,0-.48-.1,1.22,1.22,0,1,0,0,2.43,1.21,1.21,0,0,0,1.21-1.21,1.19,1.19,0,0,0-.1-.49.3.3,0,1,1,.56-.24Z"/><path class="cls-4" d="M129.24,120.14a.58.58,0,0,1-.81.08,10.49,10.49,0,0,1-.86-.77.57.57,0,0,1,.8-.82c.25.24.52.48.79.7A.57.57,0,0,1,129.24,120.14Z"/><path class="cls-4" d="M138.86,110.17a2.3,2.3,0,1,1-2.3-2.3A2.31,2.31,0,0,1,138.86,110.17Zm-1.16,0a1.14,1.14,0,1,0-1.14,1.14A1.14,1.14,0,0,0,137.7,110.17Z"/><path class="cls-4" d="M147.46,92.16V90.43a.58.58,0,1,1,1.16,0v1.73a.58.58,0,1,1-1.16,0Z"/><path class="cls-4" d="M148.62,94.47V96.2a.58.58,0,1,1-1.16,0V94.47a.58.58,0,1,1,1.16,0Z"/><path class="cls-4" d="M144.58,93.32a.57.57,0,0,1,.57-.58h1.74a.58.58,0,0,1,0,1.15h-1.74A.57.57,0,0,1,144.58,93.32Z"/><path class="cls-4" d="M148.62,93.32a.58.58,0,0,1,.57-.58h1.74a.58.58,0,0,1,0,1.15h-1.74A.58.58,0,0,1,148.62,93.32Z"/><path class="cls-4" d="M120.78,103.53a1.78,1.78,0,0,1-1.19,2.22,1.88,1.88,0,0,1-.52.08,1.8,1.8,0,0,1-.84-.21,1.78,1.78,0,1,1,2.55-2.09Zm-1.11.34a.63.63,0,0,0-.6-.45.57.57,0,0,0-.18,0,.61.61,0,0,0-.37.3.67.67,0,0,0,0,.48.63.63,0,0,0,.31.37.67.67,0,0,0,.48.05A.62.62,0,0,0,119.67,103.87Z"/><path class="cls-4" d="M122,89.9a1.79,1.79,0,1,1-1.79-1.78A1.79,1.79,0,0,1,122,89.9Zm-1.16,0a.63.63,0,1,0-1.25,0,.63.63,0,1,0,1.25,0Z"/><path class="cls-4" d="M124.68,95.06l.45-.44-.45-.44a.59.59,0,0,1,0-.82.57.57,0,0,1,.82,0l.44.44.45-.44a.56.56,0,0,1,.81,0,.57.57,0,0,1,0,.82l-.44.44.44.44a.58.58,0,0,1-.4,1,.58.58,0,0,1-.41-.17l-.45-.44-.44.44a.58.58,0,0,1-.41.17.62.62,0,0,1-.41-.17A.59.59,0,0,1,124.68,95.06Z"/><path class="cls-4" d="M135.28,90a1,1,0,1,0,0,1.93,1,1,0,0,0,0-1.93Z"/><path class="cls-4" d="M151.44,102.08a1,1,0,0,0,0,1.93,1,1,0,1,0,0-1.93Z"/><path class="cls-4" d="M148.39,104.74a13.08,13.08,0,0,1-11.83,18.38,12.93,12.93,0,0,1-6.21-1.6.56.56,0,0,1-.22-.78.57.57,0,0,1,.78-.23,11.73,11.73,0,0,0,5.65,1.45,11.86,11.86,0,0,0,11.78-11.32h-7.28a4.53,4.53,0,0,1-9,0h-7.27a11.92,11.92,0,0,0,2.09,6.21.57.57,0,0,1-.15.8.55.55,0,0,1-.32.1.56.56,0,0,1-.48-.25,13.18,13.18,0,0,1-1.25-12.63c-1.18-1.82-.31-4.57,2-6.2a5.42,5.42,0,0,1,5.24-.78.67.67,0,0,1,.12-.06,12.88,12.88,0,0,1,9.07,0,.15.15,0,0,1,.07,0,5.46,5.46,0,0,1,5.17.81C148.57,100.26,149.45,102.92,148.39,104.74Zm-5.53-6.08a2.53,2.53,0,0,0-2.16,1c-.92,1.3-.19,3.4,1.63,4.69s3.88,1.26,4.86.11a.51.51,0,0,1,.17-.24c.82-1.3.08-3.34-1.7-4.59A4.92,4.92,0,0,0,142.86,98.66Zm-9.85,0a2,2,0,0,1,.22.27c1.29,1.82.43,4.65-1.91,6.3a6.11,6.11,0,0,1-3.46,1.15,4,4,0,0,1-2.3-.66,11.76,11.76,0,0,0-.78,3.71h7.3a4.53,4.53,0,0,1,9,0h7.3a11.82,11.82,0,0,0-.8-3.78,4.1,4.1,0,0,1-2.42.73,6.06,6.06,0,0,1-3.45-1.15c-2.34-1.65-3.2-4.48-1.92-6.3a2.48,2.48,0,0,1,.25-.3A11.74,11.74,0,0,0,133,98.71Zm-7.33,5.6c.92,1.3,3.15,1.31,5,0s2.56-3.39,1.64-4.69a2.55,2.55,0,0,0-2.17-1,5,5,0,0,0-2.8,1C125.5,100.9,124.77,103,125.68,104.31Zm14.25,5.86a3.37,3.37,0,1,0-3.37,3.37A3.38,3.38,0,0,0,139.93,110.17Z"/><path class="cls-4" d="M134,103.74l1-2a.55.55,0,0,1,.48-.32.58.58,0,0,1,.51.26l.53.79.53-.79a.6.6,0,0,1,.52-.26.57.57,0,0,1,.48.32l1,2a.57.57,0,0,1-.26.77.48.48,0,0,1-.26.07.57.57,0,0,1-.51-.32l-.57-1.14-.46.69a.6.6,0,0,1-1,0l-.46-.69-.56,1.14a.58.58,0,0,1-1-.52Z"/><path class="cls-3" d="M32,185.91a.4.4,0,0,1-.4.4,2.43,2.43,0,0,1-2.44-2.43.41.41,0,1,1,.81,0,1.63,1.63,0,0,0,1.63,1.62A.4.4,0,0,1,32,185.91Z"/><path class="cls-3" d="M41,172.49a3.4,3.4,0,0,1,.34,1.65,3.05,3.05,0,0,1-1.18,2.21,2.56,2.56,0,0,1-1.28,2.51c-.12.57-.74,1.82-3.72,3.11a4,4,0,0,1,.5,1.91,4.06,4.06,0,0,1-8.11,0A4,4,0,0,1,28,182c-3-1.29-3.6-2.54-3.72-3.11A2.56,2.56,0,0,1,23,176.35a3.05,3.05,0,0,1-1.18-2.21,3.4,3.4,0,0,1,.34-1.65,2.67,2.67,0,0,1-.34-1.59,5.12,5.12,0,0,1,.88-2.25.4.4,0,0,1,.47-.16.39.39,0,0,1,.27.42c-.19,2.16,1.07,2.8,2.41,3.48,1.15.58,2.46,1.25,2.46,3a3.76,3.76,0,0,1-.41,1.76,4.06,4.06,0,0,0-.4,1.89,2.69,2.69,0,0,0,1,2.22,4,4,0,0,1,6.1,0,2.71,2.71,0,0,0,1-2.22,3.94,3.94,0,0,0-.4-1.89,3.76,3.76,0,0,1-.41-1.76c0-1.72,1.31-2.39,2.46-3,1.34-.68,2.61-1.32,2.41-3.48a.39.39,0,0,1,.27-.42.4.4,0,0,1,.47.16,5.12,5.12,0,0,1,.88,2.25A2.6,2.6,0,0,1,41,172.49ZM26.69,179a4.76,4.76,0,0,1,.47-2.22,3,3,0,0,0,.34-1.43c0-1.17-.77-1.61-2-2.25a4.45,4.45,0,0,1-2.75-2.73,1.82,1.82,0,0,0-.1.52,2.15,2.15,0,0,0,.37,1.44.43.43,0,0,1-.08.47h0a2.2,2.2,0,0,0-.29,1.33,2.44,2.44,0,0,0,1,1.7.4.4,0,0,1,.17.43,1.77,1.77,0,0,0,1,2,.43.43,0,0,1,.23.4s0,.85,1.93,1.93A3.89,3.89,0,0,1,26.69,179Zm8.11,4.87a3.25,3.25,0,1,0-3.24,3.24A3.25,3.25,0,0,0,34.8,183.88Zm5.32-11.54a2.19,2.19,0,0,0,.36-1.44,1.82,1.82,0,0,0-.1-.52,4.45,4.45,0,0,1-2.75,2.73c-1.25.64-2,1.08-2,2.25a3,3,0,0,0,.34,1.43,4.76,4.76,0,0,1,.47,2.22,3.73,3.73,0,0,1-.31,1.56c1.91-1.08,1.94-1.94,1.94-1.95a.43.43,0,0,1,.22-.38,1.73,1.73,0,0,0,1-2,.4.4,0,0,1,.17-.43,2.44,2.44,0,0,0,1-1.7,2.17,2.17,0,0,0-.3-1.34A.41.41,0,0,1,40.12,172.34Z"/><path class="cls-3" d="M238.6,175.24v1.67H216.34v-1.67a2.78,2.78,0,0,1,2.78-2.79h7.79v-1.66a3.43,3.43,0,0,1,.05-.56h-7.29v-.56a2.79,2.79,0,0,1,2.79-2.78h8.35a4.09,4.09,0,0,1,1.4.26,10.43,10.43,0,0,0,.21-1.38,2.22,2.22,0,0,1-.42-4.39,11.78,11.78,0,0,0-3.4-5.39l-3.12,3.12,1.11,1.12-2.45,2.45-7.47-7.46,2.46-2.46,1.11,1.11,7.79-7.79,1.11,1.11,2-2-.55-.55,2.44-2.49,4.13,4.14-2.45,2.47-.56-.56-2,2,1.11,1.11-1.51,1.51a16.11,16.11,0,0,1,3.16,19.62h.9A2.79,2.79,0,0,1,238.6,175.24Zm-6.44-30.6,2.55,2.55.88-.89L233,143.74ZM229.93,148l1.44,1.44,2-2L231.93,146ZM225,160.23l-5.89-5.9-.89.89,5.9,5.89Zm6.68-8.91L228,147.65l-7,7,3.66,3.67Zm1.47,10.12a2.23,2.23,0,0,1,1.53,2.11,2.21,2.21,0,0,1-1.14,1.93,13.15,13.15,0,0,1-.34,2.25,3.91,3.91,0,0,1,1.46,2.66A15,15,0,0,0,231,153.62l-1.58,1.58A12.91,12.91,0,0,1,233.17,161.44Zm-.69,3.22a1.11,1.11,0,1,0-1.12-1.11A1.11,1.11,0,0,0,232.48,164.66Zm-5.19,4.46a3.88,3.88,0,0,1,.8-1.12h-5.63a1.68,1.68,0,0,0-1.58,1.12Zm10.2,6.12a1.67,1.67,0,0,0-1.67-1.67h-5.57v-1.12h3.34v-1.66a2.79,2.79,0,1,0-5.57,0v1.66h1.12v1.12h-10a1.67,1.67,0,0,0-1.67,1.67v.55h20Z"/><path class="cls-3" d="M95.29,150.35a1.32,1.32,0,1,1-2.64,0,1.31,1.31,0,0,1,.19-.68l-5.36-5.36,0,0a3,3,0,0,1-.94.52l.42,1.88a1.31,1.31,0,1,1-.61.13l-.42-1.87-.34,0a3,3,0,0,1-2.47-1.31l-4,2.17a1.69,1.69,0,0,1,.08.5,1.67,1.67,0,1,1-.38-1l4-2.17a3.1,3.1,0,0,1-.22-1.15,3,3,0,0,1,.67-1.88l-1.69-1.69a1.31,1.31,0,0,1-.68.19,1.32,1.32,0,1,1,1.32-1.32,1.35,1.35,0,0,1-.19.69l1.68,1.68a3,3,0,0,1,3.78,0L91.11,136a2.31,2.31,0,0,1-.48-1.41A2.33,2.33,0,1,1,93,136.89a2.36,2.36,0,0,1-1.41-.47l-3.65,3.65a3,3,0,0,1,0,3.77l0,0,5.35,5.35A1.35,1.35,0,0,1,94,149,1.32,1.32,0,0,1,95.29,150.35Zm-16.75-4a1,1,0,1,0-1,1A1,1,0,0,0,78.54,146.32Zm8.37,1a.69.69,0,1,0,.7.69A.69.69,0,0,0,86.91,147.31Zm4.35-12.75a1.7,1.7,0,1,0,1.7-1.7A1.7,1.7,0,0,0,91.26,134.56Zm-10.39,3.38a.69.69,0,1,0-.7-.69A.69.69,0,0,0,80.87,137.94Zm7.07,4a2.37,2.37,0,1,0-2.37,2.38A2.37,2.37,0,0,0,87.94,142Zm6.72,8.4a.69.69,0,0,0-1.38,0,.69.69,0,1,0,1.38,0Z"/><path class="cls-3" d="M87.23,142a.32.32,0,1,1-.63,0,1,1,0,0,0-1-1,.32.32,0,0,1-.32-.31.33.33,0,0,1,.32-.32A1.67,1.67,0,0,1,87.23,142Z"/><path class="cls-3" d="M92.65,133.89a.32.32,0,0,1,.31-.32,1,1,0,0,1,1,1,.32.32,0,1,1-.63,0,.36.36,0,0,0-.36-.36A.31.31,0,0,1,92.65,133.89Z"/><path class="cls-3" d="M93.39,227.64a2.83,2.83,0,0,1-2.27,2.69v.3a.71.71,0,0,1-1.42,0v-.3a2.83,2.83,0,0,1-2.27-2.69.71.71,0,0,1,1.42,0,1.57,1.57,0,1,0,1.56-1.36,2.88,2.88,0,0,1-3-2.77,2.83,2.83,0,0,1,2.27-2.69v-.36a.71.71,0,1,1,1.42,0v.36a2.83,2.83,0,0,1,2.27,2.69.71.71,0,0,1-1.42,0,1.57,1.57,0,1,0-1.56,1.36A2.88,2.88,0,0,1,93.39,227.64Z"/><path class="cls-3" d="M99.64,225.62A9.32,9.32,0,0,1,98.56,230a.7.7,0,0,1-.63.37.67.67,0,0,1-.33-.08.7.7,0,0,1-.29-1,7.81,7.81,0,0,0-3.52-10.7.71.71,0,0,1,.61-1.28,9.26,9.26,0,0,1,5.24,8.32Z"/><path class="cls-3" d="M92.23,217.11a.71.71,0,0,1-.71.71h0a.71.71,0,1,1,0-1.42h0A.71.71,0,0,1,92.23,217.11Z"/><path class="cls-3" d="M87.37,233.6a.71.71,0,0,1-.64.41.87.87,0,0,1-.31-.07,9.29,9.29,0,0,1-3.77-3.34,9.22,9.22,0,0,1-.38-9.31.71.71,0,0,1,1.25.67,7.75,7.75,0,0,0-.91,3.66,7.86,7.86,0,0,0,4.43,7A.7.7,0,0,1,87.37,233.6Z"/><path class="cls-3" d="M90.06,234.13a.71.71,0,0,1-.71.71h0a.7.7,0,0,1-.7-.71.71.71,0,0,1,.71-.71h0A.71.71,0,0,1,90.06,234.13Z"/><path class="cls-3" d="M102.47,225.62a12,12,0,0,1-20.86,8.23H73.24a3.26,3.26,0,0,1-2-5.82,3.25,3.25,0,0,1,0-5.11,3.24,3.24,0,0,1,0-5.1,3.26,3.26,0,0,1,2-5.82h1.85a3.27,3.27,0,0,1,0-3.69H69.41a3.27,3.27,0,0,1,0-6.53H86.79a3.28,3.28,0,0,1,3.27,3.27,3.17,3.17,0,0,1-.58,1.84h5.69a3.27,3.27,0,0,1,0,6.53H93.32a2.93,2.93,0,0,1,.31.58A12.07,12.07,0,0,1,102.47,225.62ZM77.78,208.31a1.85,1.85,0,0,0,0,3.69H95.17a1.85,1.85,0,0,0,0-3.69Zm9-1.42a1.85,1.85,0,1,0,0-3.69H69.41a1.85,1.85,0,0,0,0,3.69ZM71.4,215.26a1.85,1.85,0,0,0,1.84,1.85h8.64a12,12,0,0,1,8.53-3.55c.35,0,.68,0,1,0a1.84,1.84,0,0,0-.8-.18H73.24A1.85,1.85,0,0,0,71.4,215.26Zm0,5.11a1.85,1.85,0,0,0,1.84,1.85h5.6a11.91,11.91,0,0,1,1.83-3.69H73.24A1.84,1.84,0,0,0,71.4,220.37Zm0,5.11a1.84,1.84,0,0,0,1.84,1.84h5.23a11.9,11.9,0,0,1,0-3.69H73.24A1.85,1.85,0,0,0,71.4,225.48Zm9.07,7a11.85,11.85,0,0,1-1.71-3.69H73.24a1.85,1.85,0,0,0,0,3.69Zm20.58-6.81a10.64,10.64,0,1,0-10.64,10.64A10.65,10.65,0,0,0,101.05,225.62Z"/><path class="cls-3" d="M38.9,239.14v14.2a1.75,1.75,0,0,1-1.75,1.75H20a1.75,1.75,0,0,1-1.76-1.75v-14.2A1.75,1.75,0,0,1,20,237.39h2.07a3.25,3.25,0,0,1-.87-1.94,7,7,0,0,1,.51-3.3A2.58,2.58,0,0,1,20,229.7v-.86a8.62,8.62,0,0,1,17.23,0v.86a2.58,2.58,0,0,1-1.66,2.41,7.83,7.83,0,0,1,.56,3.25,3.28,3.28,0,0,1-.88,2h1.93A1.75,1.75,0,0,1,38.9,239.14ZM36,227.4a1.41,1.41,0,0,0-.75,1.24,1.38,1.38,0,0,0,.87,1.29,1.64,1.64,0,0,0,0-.23v-.86A7.64,7.64,0,0,0,36,227.4Zm-3.41-4.62a1.88,1.88,0,0,0,1.88,1.87,1.69,1.69,0,0,0,.38,0,7.82,7.82,0,0,0-2.23-2.17A2,2,0,0,0,32.63,222.78Zm-10.35,1.83a1.58,1.58,0,0,0,.38,0,1.87,1.87,0,0,0,1.87-1.87,2,2,0,0,0,0-.34A7.78,7.78,0,0,0,22.28,224.61Zm-.41,4a1.42,1.42,0,0,0-.74-1.24,7.64,7.64,0,0,0-.14,1.44v.86a1.69,1.69,0,0,0,0,.23A1.38,1.38,0,0,0,21.87,228.64Zm.67,2.62h1.14a1.58,1.58,0,0,1,1.09-1.16,13.07,13.07,0,0,1,4.87-.53.51.51,0,1,1-.09,1,11.9,11.9,0,0,0-4.49.49.56.56,0,0,0-.39.41,1,1,0,0,1-1,.79h-.9a6.24,6.24,0,0,0-.54,3.08,2.22,2.22,0,0,0,2.23,2h8.37a2.23,2.23,0,0,0,2.24-2.08,7.06,7.06,0,0,0-.57-3h-1a1,1,0,0,1-1-.78.57.57,0,0,0-.39-.42l-.58-.16a.51.51,0,0,1-.37-.62.49.49,0,0,1,.61-.37l.63.17a1.59,1.59,0,0,1,1.1,1.16h1.13a1.55,1.55,0,0,0,1.06-.42,2.4,2.4,0,0,1-1.41-2.2,2.43,2.43,0,0,1,1.5-2.24,6.63,6.63,0,0,0-.36-.87,3,3,0,0,1-.9.14,2.89,2.89,0,0,1-2.9-2.89,3,3,0,0,1,.13-.84,7.58,7.58,0,0,0-6.32,0,2.63,2.63,0,0,1,.13.84,2.89,2.89,0,0,1-2.89,2.89,3.09,3.09,0,0,1-.91-.14,6.63,6.63,0,0,0-.36.87,2.42,2.42,0,0,1,.09,4.44A1.55,1.55,0,0,0,22.54,231.26Zm15.34,22.08v-14.2a.73.73,0,0,0-.73-.73H20a.73.73,0,0,0-.73.73v14.2a.72.72,0,0,0,.73.73H37.15a.73.73,0,0,0,.73-.73Z"/><path class="cls-3" d="M36.86,239.94v12.6a.51.51,0,0,1-.51.51H20.82a.51.51,0,0,1-.51-.51V250a.51.51,0,0,1,1,0v2h14.5V240.45H21.33V248a.51.51,0,1,1-1,0v-8a.51.51,0,0,1,.51-.51H36.35A.51.51,0,0,1,36.86,239.94Z"/><circle class="cls-3" cx="34.81" cy="241.54" r="0.61"/><circle class="cls-3" cx="22.49" cy="241.54" r="0.61"/><circle class="cls-3" cx="34.81" cy="250.94" r="0.61"/><circle class="cls-3" cx="22.49" cy="250.94" r="0.61"/><path class="cls-3" d="M32.8,242.45v3.16a1.28,1.28,0,0,1-.69,1.15l-2.17,1.16h0v.14a.72.72,0,0,1-.72.72H28.06a.73.73,0,0,1-.73-.72v-.92A1.29,1.29,0,0,1,28,246l2.17-1.16v-1.08H27.44v.69a.71.71,0,0,1-.71.71H25.54a.7.7,0,0,1-.7-.71v-2a1.31,1.31,0,0,1,1.3-1.31H31.5A1.31,1.31,0,0,1,32.8,242.45Zm-1,3.16v-3.16a.28.28,0,0,0-.28-.29H26.14a.28.28,0,0,0-.28.29v1.68h.56v-.89a.51.51,0,0,1,.51-.51h3.78a.51.51,0,0,1,.51.51v1.9a.5.5,0,0,1-.27.45l-2.44,1.3a.26.26,0,0,0-.15.25v.62h.56v-.15a.5.5,0,0,1,.27-.45l2.44-1.3a.26.26,0,0,0,.15-.25Z"/><path class="cls-3" d="M29.94,249.94V251a.8.8,0,0,1-.81.8h-1a.81.81,0,0,1-.81-.8v-1.05a.81.81,0,0,1,.81-.8h1A.8.8,0,0,1,29.94,249.94Zm-1,.22h-.56v.61h.56Z"/><path class="cls-3" d="M26.91,232.48v2.18a.61.61,0,1,1-1.22,0v-2.18a.61.61,0,0,1,1.22,0Z"/><path class="cls-3" d="M31.61,232.48v2.18a.61.61,0,1,1-1.22,0v-2.18a.61.61,0,0,1,1.22,0Z"/><path class="cls-3" d="M31.48,225.64a2.9,2.9,0,1,1-2.9-2.89A2.89,2.89,0,0,1,31.48,225.64Zm-1,0a1.87,1.87,0,1,0-1.87,1.87A1.87,1.87,0,0,0,30.45,225.64Z"/><path class="cls-3" d="M89.83,40.08v9.06a2.3,2.3,0,0,1-1,1.85,3.85,3.85,0,0,1-4.43,0,2.22,2.22,0,0,1,0-3.71,3.89,3.89,0,0,1,4.32-.07V40.83L78.72,44v8.67a2.33,2.33,0,0,1-1,1.85,3.85,3.85,0,0,1-4.43,0,2.22,2.22,0,0,1,0-3.71,3.86,3.86,0,0,1,4.33-.07V43.62h0V39.88a.55.55,0,0,1,.38-.53l11.12-3.53a.54.54,0,0,1,.71.52v3.74ZM77.62,52.69c0-.79-1-1.45-2.12-1.45s-2.11.66-2.11,1.45,1,1.45,2.11,1.45S77.62,53.48,77.62,52.69Zm11.11-13V37.09l-10,3.18v2.59Zm0,9.46c0-.79-1-1.45-2.11-1.45s-2.11.66-2.11,1.45,1,1.45,2.11,1.45S88.73,49.92,88.74,49.14Z"/><path class="cls-3" d="M247.2,105.47h0a1.52,1.52,0,0,1-.47,1h0a2.11,2.11,0,0,1-.27.18l-.12.07,0,.12a1.35,1.35,0,0,1,.09.32,2,2,0,0,1,0,.35v0a1.69,1.69,0,0,1-.1.35v0l-.09.18a.22.22,0,0,0,0,.08h0l-.06.08-.14.16h0a.93.93,0,0,1-.15.13h0l-.16.11h0l-.17.08h0l-.16.06-.17,0h-.33l-.14,0,0,.14a1.47,1.47,0,0,1-.88,1h0a1.61,1.61,0,0,1-.35.1,1.37,1.37,0,0,1-.34,0h0a1.13,1.13,0,0,1-.32,0l-.29-.12-.13-.08-.08.13a1.51,1.51,0,0,1-.18.26h0a1.21,1.21,0,0,1-.24.21,1.43,1.43,0,0,1-.63.26h0l-.28,0a1.74,1.74,0,0,1-.39,0h0a1.64,1.64,0,0,1-.56-.28l-.11-.09-.1.12a1.58,1.58,0,0,1-.48.4,1.59,1.59,0,0,1-.64.18h0a1.46,1.46,0,0,0,.77,1l1.12.54a3.38,3.38,0,0,0,4.86-3,.3.3,0,0,1,.3-.31h0a.31.31,0,0,1,.31.3,4,4,0,0,1-3.82,4h-.45a3.49,3.49,0,0,1,.82,2.24,1,1,0,0,1-1.05,1h-.37a1,1,0,0,1-1-1,1.07,1.07,0,0,0-.63-1h0l-1.12-.54a4,4,0,0,1-2.18-3.3,1.58,1.58,0,0,1-1.27-1.54,1.64,1.64,0,0,1,.18-.73H235a1.56,1.56,0,0,1-1.14-.53l-.1-.12-.11.1a1.51,1.51,0,0,1-1,.37h-.23a1.59,1.59,0,0,1-1.1-.7l-.07-.13-.13.07a1,1,0,0,1-.3.12l-.15,0h-.22a1.64,1.64,0,0,1-.7-.17h0l-.18-.11,0,0-.06,0-.08-.07-.14-.14h0l-.12-.16,0-.08h0a.59.59,0,0,0,0-.08l-.06-.17v0a1.75,1.75,0,0,1,0-.33v-.12l-.12,0a1,1,0,0,1-.31-.12h0l-.15-.1-.07-.07h0l0-.05h0a1.09,1.09,0,0,1-.13-.17h0a1,1,0,0,1-.1-.18.37.37,0,0,1-.05-.11.24.24,0,0,1,0-.07v0a2.25,2.25,0,0,1-.05-.22v0a1.45,1.45,0,0,1,.48-1.36l.11-.08-.07-.11a1.35,1.35,0,0,1-.14-.3h0a2.33,2.33,0,0,1-.06-.35,1.67,1.67,0,0,1,.18-.76l.1-.17h0l.12-.15h0a1.64,1.64,0,0,1,.27-.24h0a2.09,2.09,0,0,1,.3-.15l.15,0h0l.15,0,.15,0v-.14a1.34,1.34,0,0,1,.13-.64h0a1.19,1.19,0,0,1,.18-.29h0a1.59,1.59,0,0,1,.26-.26h0a2,2,0,0,1,.32-.2,1.82,1.82,0,0,1,.33-.11h0a1.53,1.53,0,0,1,.3,0h0a1.24,1.24,0,0,1,.31,0l.14,0,0-.15a1.41,1.41,0,0,1,.32-.55h0a2.75,2.75,0,0,1,.26-.22h0a2.39,2.39,0,0,1,.32-.16h0a1.71,1.71,0,0,1,.59-.11,1.41,1.41,0,0,1,.71.18l.13.07.07-.13a1.55,1.55,0,0,1,1.07-.73l.28,0a1.44,1.44,0,0,1,1,.35l.12.1.1-.12a.93.93,0,0,1,.23-.21,1.2,1.2,0,0,1,.27-.16h0a1.77,1.77,0,0,1,.63-.13h0a1.46,1.46,0,0,1,.66.16h0a1.78,1.78,0,0,1,.27.17,1.14,1.14,0,0,1,.22.22l.1.12.12-.09a1.44,1.44,0,0,1,.93-.32,1.84,1.84,0,0,1,.33,0,1.5,1.5,0,0,1,1,.77l.07.13.14-.06a1.38,1.38,0,0,1,.64-.16,1.6,1.6,0,0,1,1.52,1.15l0,.14.14,0,.16,0h.16l.33,0a1.63,1.63,0,0,1,.32.13h0a3.72,3.72,0,0,1,.31.22,1.77,1.77,0,0,1,.42.6h0a1.32,1.32,0,0,1,.09.32,1.82,1.82,0,0,1,0,.33v.14l.13,0a1.24,1.24,0,0,1,.31.1,1.2,1.2,0,0,1,.3.19l.13.12.12.16h0a.67.67,0,0,1,.09.14v0h0a1,1,0,0,1,.08.18,1.67,1.67,0,0,1,.1.78,1.06,1.06,0,0,1,0,.19.64.64,0,0,1-.06.16h0a1,1,0,0,1-.16.27l-.1.11.1.1a.63.63,0,0,1,.11.12l0,.06h0l.05.07h0a1.28,1.28,0,0,1,.15.28A1.58,1.58,0,0,1,247.2,105.47ZM238,110.89a1.36,1.36,0,0,1-.5-.3,1.42,1.42,0,0,1-.41-.66l0-.09h-.1a1.7,1.7,0,0,1-1.32-1,1,1,0,0,0,.81,1.46,1,1,0,0,0,.24,0,.3.3,0,1,1,.15.59l-.07,0a3.28,3.28,0,0,0,1.83,2.74l1.13.55a1.69,1.69,0,0,1,1,1.53.43.43,0,0,0,.43.43h.37a.43.43,0,0,0,.43-.43,2.93,2.93,0,0,0-1.67-2.63h0l-1.12-.55A2.07,2.07,0,0,1,238,110.89Zm8.56-5.92a1.19,1.19,0,0,0-.08-.16l-.05-.07,0,0-.06-.07-.3-.3a.31.31,0,0,1,0-.42l.28-.32a.54.54,0,0,0,.07-.12.49.49,0,0,1,0-.07s0-.08,0-.13a1,1,0,0,0-.06-.47.6.6,0,0,0-.06-.11v0l0-.07h0l-.09-.11-.05,0a.64.64,0,0,0-.17-.11.64.64,0,0,0-.18-.06l-.41-.08a.32.32,0,0,1-.25-.34l0-.42a.54.54,0,0,0,0-.18,1.08,1.08,0,0,0,0-.19,1.17,1.17,0,0,0-.27-.37l-.19-.13-.2-.08-.18,0h-.17l-.44.1h0a.61.61,0,0,0-.41.27.64.64,0,0,0-.1.5,1.21,1.21,0,0,1-.2.89,1.15,1.15,0,0,1-.76.49.85.85,0,0,1-.23,0,1.27,1.27,0,0,1-1.23-1l0-.26a.31.31,0,0,1,.25-.36.3.3,0,0,1,.35.25l.05.26a.66.66,0,0,0,.27.42.67.67,0,0,0,.48.1.58.58,0,0,0,.37-.24.52.52,0,0,0,.09-.42,1.28,1.28,0,0,1,.2-1,1.17,1.17,0,0,1,.53-.46l0-.16a.91.91,0,0,0-.51-.58,1,1,0,0,0-.41-.09.83.83,0,0,0-.36.08l-.41.21a.3.3,0,0,1-.41-.13l-.21-.41a.94.94,0,0,0-.62-.45,1,1,0,0,0-.76.16l-.36.3a.29.29,0,0,1-.22.06.31.31,0,0,1-.21-.11l-.29-.37a.43.43,0,0,0-.12-.11.91.91,0,0,0-.16-.11,1,1,0,0,0-.4-.09h0a.87.87,0,0,0-.38.08,1,1,0,0,0-.17.1.43.43,0,0,0-.12.11l-.23.27v1a.65.65,0,0,0,.64.65,1.25,1.25,0,0,1,1.26,1.25v0a1.26,1.26,0,0,1-1.26,1.26.58.58,0,0,0-.57.57.65.65,0,0,0,.64.65h.27a.3.3,0,0,1,.31.3.31.31,0,0,1-.31.31h-.27a1.26,1.26,0,0,1-1.25-1.26,1.19,1.19,0,0,1,1.18-1.19.64.64,0,0,0,.65-.64v0a.65.65,0,0,0-.65-.64,1.26,1.26,0,0,1-1.26-1.26v-1h0l-.24-.21a.86.86,0,0,0-.57-.2l-.17,0a.86.86,0,0,0-.64.42l-.23.4a.3.3,0,0,1-.41.12l-.4-.23a.92.92,0,0,0-.41-.1,1.15,1.15,0,0,0-.36.07l-.2.11a1.07,1.07,0,0,0-.16.14.83.83,0,0,0-.18.31l-.06.22a1.26,1.26,0,0,1,0,1.77.64.64,0,0,0,0,.91l0,0a.65.65,0,0,0,.92,0,1.18,1.18,0,0,1,1.67,0,1.26,1.26,0,0,1,0,1.78l-.19.19a.3.3,0,0,1-.21.09.31.31,0,0,1-.22-.09.3.3,0,0,1,0-.43l.19-.19a.66.66,0,0,0,0-.92.58.58,0,0,0-.81,0,1.26,1.26,0,0,1-1.78,0l0,0a1.22,1.22,0,0,1-.37-.89,1.26,1.26,0,0,1,.37-.89.65.65,0,0,0,0-.91l-.43-.11a.56.56,0,0,0-.16,0h0l-.19,0-.2.07-.2.13a1.2,1.2,0,0,0-.16.16.78.78,0,0,0-.11.18.77.77,0,0,0-.08.35l0,.44a.32.32,0,0,1-.28.32l-.44,0h-.08l-.08,0-.15.08h0a.76.76,0,0,0-.16.14h0l-.08.1-.06.11a1,1,0,0,0-.11.47.88.88,0,0,0,0,.2.61.61,0,0,0,.07.14l.22.35a.31.31,0,0,1-.08.41l-.32.25a.82.82,0,0,0-.25.77.83.83,0,0,0,0,.15v0l0,.07.06.11.08.11h0l0,0,0,0a.24.24,0,0,0,.09.06l.14.06.37.08a.31.31,0,0,1,.24.3v.37a.47.47,0,0,0,0,.17.3.3,0,0,1,0,.1l0,0,0,0a.76.76,0,0,0,.08.11l.09.09,0,0h0l.12.08a1,1,0,0,0,.42.11h.13l.08,0,.14-.06.4-.23a.31.31,0,0,1,.42.11l.23.39a.92.92,0,0,0,.66.41.9.9,0,0,0,.73-.21l.35-.31a.36.36,0,0,1,.23-.08.33.33,0,0,1,.21.11l.3.36a1,1,0,0,0,.93.3l.41-.1h.07a.3.3,0,0,1,.29.21l.13.4a1.11,1.11,0,0,0,.89.75l.29,0a.3.3,0,0,1,.25.22l.08.28a.93.93,0,0,0,.25.38.92.92,0,0,0,.3.18l.14,0h0a1,1,0,0,0,.24,0,1.11,1.11,0,0,0,.4-.11,1.16,1.16,0,0,0,.29-.24l.26-.34v0a.64.64,0,0,0-.65-.64,1.19,1.19,0,0,1-1.18-1.19,1.26,1.26,0,0,1,1.26-1.26h.27a.31.31,0,0,1,.3.31.3.3,0,0,1-.3.3H239a.65.65,0,0,0-.65.65.58.58,0,0,0,.57.57,1.26,1.26,0,0,1,1.26,1.26v.08l.21.16a1.14,1.14,0,0,0,.33.17,1.09,1.09,0,0,0,.4,0,1,1,0,0,0,.4-.16l.14-.12.11-.15.22-.39a.31.31,0,0,1,.42-.12l.4.22.15.07a1.2,1.2,0,0,0,.2,0h.2l.21-.06h0a.89.89,0,0,0,.53-.58l.08-.42a.32.32,0,0,1,.35-.25l.43.06h.16l.11,0,.07,0,.11,0,.09-.06.09-.07.1-.12,0,0,0,0,.06-.12a1.15,1.15,0,0,0,.06-.21,1.58,1.58,0,0,0,0-.19.91.91,0,0,0,0-.16l-.09-.2h-.43a1.26,1.26,0,0,1-1.26-1.26.65.65,0,0,0-.65-.65h0a.65.65,0,0,0-.65.65,1.18,1.18,0,0,1-1.18,1.18,1.25,1.25,0,0,1-1.26-1.26v-.27a.31.31,0,0,1,.61,0v.27a.65.65,0,0,0,.65.65.58.58,0,0,0,.57-.57,1.25,1.25,0,0,1,1.26-1.26h0a1.25,1.25,0,0,1,1.26,1.26.65.65,0,0,0,.65.64h.56l.3-.16.15-.1a.79.79,0,0,0,.12-.15,1,1,0,0,0,.16-.43h0A.91.91,0,0,0,246.54,105Z"/><path class="cls-3" d="M14.66,71.28a7.32,7.32,0,0,1-2.58,5.58l-1.63,1.88a11.26,11.26,0,0,0-1.07,2.71L9.24,82a2,2,0,0,1-3.82,0l-.14-.55a10.66,10.66,0,0,0-1.12-2.78,6.59,6.59,0,0,0-1.56-1.8A7.33,7.33,0,0,1,.09,70.08,7.42,7.42,0,0,1,6.49,64a7.33,7.33,0,0,1,8.17,7.29ZM.84,70.87H4.11a3.24,3.24,0,0,1,6.44,0h3.28a6.56,6.56,0,0,0-2.15-4.45,6.42,6.42,0,0,0-4.34-1.66,6.56,6.56,0,0,0-.76,0A6.58,6.58,0,0,0,.9,70.21,4.91,4.91,0,0,0,.84,70.87Zm6.49-2a2.45,2.45,0,1,0,2.45,2.45A2.45,2.45,0,0,0,7.33,68.83Zm6.5,2.85H10.55a3.24,3.24,0,0,1-6.44,0H.84a6.48,6.48,0,0,0,2.29,4.57,7.49,7.49,0,0,1,1.73,2,11.65,11.65,0,0,1,1.21,3l.14.55a1.15,1.15,0,0,0,2.24,0l.14-.55a11.71,11.71,0,0,1,1.2-3l.18-.22,1.53-1.77A6.56,6.56,0,0,0,13.83,71.68Z"/><path class="cls-3" d="M155.83,228.53a9.71,9.71,0,1,1-2.84-6.87A9.69,9.69,0,0,1,155.83,228.53Zm-1.13,0a8.59,8.59,0,1,0-8.59,8.59A8.6,8.6,0,0,0,154.7,228.53Z"/><path class="cls-3" d="M153.09,231.12l-3,3.14L148,227.77l-1.88,2.47-1.88-2.47-2.15,6.49-2.94-3.14,3.93-9.09,3,3,3-3Zm-2.47,1,1.12-1.19-3-6.87-2.66,2.66L143.45,224l-3,6.87,1.12,1.19,2.23-6.72,2.28,3,2.28-3Z"/><path class="cls-3" d="M51.8,26.83a.51.51,0,0,0,.51-.52V24.45A2.7,2.7,0,0,0,50.78,22l-13.45-6.4a2.67,2.67,0,0,0-2.31,0l-9.81,4.67a.52.52,0,0,0,.45.93l9.8-4.67a1.63,1.63,0,0,1,1.43,0L50.34,23l.23.14L36.18,30l-14.4-6.86L22,23l1.67-.79a.52.52,0,0,0,.24-.69.52.52,0,0,0-.68-.24L21.57,22A2.69,2.69,0,0,0,20,24.45V41.34a2.7,2.7,0,0,0,1.53,2.43l9,4.28a.52.52,0,1,0,.45-.93l-9-4.28a1.66,1.66,0,0,1-.94-1.5V24.45a1.82,1.82,0,0,1,.08-.52l14.51,6.91V49.33l-.2-.08L33,48.06a.52.52,0,0,0-.45.93L35,50.17a2.61,2.61,0,0,0,2.31,0l13.45-6.4h0a2.71,2.71,0,0,0,1.5-2.41V28.49a.52.52,0,0,0-1,0V41.34a1.68,1.68,0,0,1-.93,1.5L36.89,49.25l-.2.08V30.84L51.2,23.93a1.82,1.82,0,0,1,.08.52v1.86a.52.52,0,0,0,.52.52Z"/><path class="cls-3" d="M43.25,36c-.19,1.47.67,2.53,1.71,2.53a2.14,2.14,0,0,0,1.91-2A2.09,2.09,0,0,0,45.37,34,2.1,2.1,0,0,0,43.25,36Zm2.6.35c-.09.67-.53,1.21-1,1.15s-.71-.69-.62-1.36.54-1.2,1-1.15S45.94,35.7,45.85,36.36Z"/><path class="cls-3" d="M33.63,33.28a2.08,2.08,0,0,0-1.94-2.19A2.09,2.09,0,0,0,30,33.48a2.1,2.1,0,0,0,1.86,2.19A2,2,0,0,0,33.63,33.28Zm-1.74,1.36c-.42,0-.82-.55-.86-1.22s.3-1.28.72-1.3.82.54.86,1.22c0,.53-.23,1.27-.72,1.3Z"/><path class="cls-3" d="M22.54,39.93a2.1,2.1,0,0,0,1.86,2.19,2.05,2.05,0,0,0,1.77-2.39,2.07,2.07,0,0,0-1.94-2.19,2.08,2.08,0,0,0-1.69,2.39Zm1.75-1.37c.5,0,.83.69.86,1.22s-.22,1.28-.72,1.31-.83-.69-.86-1.22S23.79,38.59,24.29,38.56Z"/><path class="cls-3" d="M30,24.62a2.07,2.07,0,0,0,2.19-1.94A2.08,2.08,0,0,0,29.76,21a2.08,2.08,0,0,0-2.19,1.94A2.09,2.09,0,0,0,30,24.62ZM29.82,22c.52,0,1.28.22,1.3.72s-.54.83-1.21.86-1.29-.3-1.31-.72S29.15,22.05,29.82,22Z"/><path class="cls-3" d="M35.92,18a2.08,2.08,0,0,0-2.19,1.94,2.09,2.09,0,0,0,2.39,1.69,2.09,2.09,0,0,0,2.19-1.94A2.08,2.08,0,0,0,35.92,18Zm.14,2.6c-.52,0-1.27-.22-1.3-.72S35.3,19,36,19c.52,0,1.27.22,1.3.72s-.54.82-1.22.86Z"/><path class="cls-3" d="M42.57,24.84a2.08,2.08,0,0,0,2.19-1.94,2.08,2.08,0,0,0-2.39-1.69,2.07,2.07,0,0,0-2.19,1.94A2.07,2.07,0,0,0,42.57,24.84Zm-.15-2.61c.52,0,1.28.22,1.31.72s-.68.83-1.22.86-1.28-.3-1.31-.72S41.75,22.27,42.42,22.23Z"/><path class="cls-3" d="M36.36,24A2.07,2.07,0,0,0,34.17,26a2,2,0,0,0,2.22,1.7,2.11,2.11,0,0,0,2.35-2A2.08,2.08,0,0,0,36.36,24Zm.14,2.6c-.68,0-1.28-.29-1.31-.72s.55-.82,1.22-.85,1.28.21,1.31.72-.69.83-1.22.85Z"/><path class="cls-3" d="M235.71,239.24a.51.51,0,0,0-.5.5.64.64,0,1,1-1.27,0,.51.51,0,0,0-1,0,1.65,1.65,0,1,0,3.29,0A.51.51,0,0,0,235.71,239.24Z"/><path class="cls-3" d="M240.43,239.32l-1.41-.45a.61.61,0,0,1-.39-.39,9,9,0,0,0-2.23-3.69,12.19,12.19,0,0,0,.31-2.85c0-1.28-.27-2-.78-2.3-.27-.14-1.1-.57-5.58,1.48a1.49,1.49,0,0,0-.3.18l-.92-.23-.12,0a6.73,6.73,0,0,0,.62-2.55.5.5,0,0,0-.48-.52.51.51,0,0,0-.53.48,5.81,5.81,0,0,1-1.7,3.87,6,6,0,0,1-2.12,1.36,14.46,14.46,0,0,0-4.05,0,5.92,5.92,0,0,1-2.11-1.36,5.85,5.85,0,1,1,8.28-8.27,5.94,5.94,0,0,1,1.09,1.5.5.5,0,0,0,.67.23.51.51,0,0,0,.23-.68,6.9,6.9,0,0,0-1.28-1.76,6.86,6.86,0,1,0-9.7,9.7,6.9,6.9,0,0,0,1.21,1h0q-.48.12-.93.27a.51.51,0,0,0,.32,1,13.43,13.43,0,0,1,8.5,0,.41.41,0,0,0,.16,0,.49.49,0,0,0,.47-.34.51.51,0,0,0-.31-.64l-.93-.27h0a6.62,6.62,0,0,0,2.08-2l.41.08.54.13s0,0,0,.07a6,6,0,0,0,0,3.05,3.66,3.66,0,0,0,1.34,1.88,4.27,4.27,0,0,0,2.47.78,3.24,3.24,0,0,0,1.6-.37,3,3,0,0,0,1.18-1.68c.15.17.29.35.42.52a8.32,8.32,0,0,1,1.19,2.36,1.6,1.6,0,0,0,1,1l1.41.45a.89.89,0,0,1,.63.85v2.35a.89.89,0,0,1-.63.85l-2.27.73a1.48,1.48,0,0,0-.87.7,10.07,10.07,0,0,1-4.19,3.81.8.8,0,0,0-.41.55l-.73,3.87a.22.22,0,0,1-.22.18h-2.38a.22.22,0,0,1-.22-.18l-.4-2.14a.78.78,0,0,0-.9-.63,21.55,21.55,0,0,1-3.13.23,19.22,19.22,0,0,1-2.3-.13.79.79,0,0,0-.87.64l-.39,2a.22.22,0,0,1-.22.18h-2.37A.23.23,0,0,1,218,254l-.7-3.65a.76.76,0,0,0-.4-.55,8.86,8.86,0,0,1-4.9-8.27,9.61,9.61,0,0,1,1.21-4.91,8.72,8.72,0,0,1,3.27-3.19.5.5,0,1,0-.51-.87,9.56,9.56,0,0,0-4.85,7.14H211a2.49,2.49,0,0,0-.18-1,2.06,2.06,0,0,0-1.53-1.34,1.39,1.39,0,0,0-1.3.59,1.31,1.31,0,0,0-.25,1.44c.25.52.9.89,2,1.12l-.1.14a2.47,2.47,0,0,1-1.88,1,.53.53,0,0,0-.51.53h0a.52.52,0,0,0,.5.52h.12a3.28,3.28,0,0,0,2.56-1.43,2.59,2.59,0,0,0,.36-.59l.28,0h0c0,.27,0,.55,0,.83a10.36,10.36,0,0,0,1.48,5.54,10.17,10.17,0,0,0,3.86,3.57l.69,3.55a1.23,1.23,0,0,0,1.21,1h2.37a1.23,1.23,0,0,0,1.21-1l.35-1.84a20.23,20.23,0,0,0,2.22.12,22.44,22.44,0,0,0,3.08-.22l.37,1.94a1.22,1.22,0,0,0,1.2,1h2.38a1.23,1.23,0,0,0,1.21-1l.71-3.77a10.94,10.94,0,0,0,4.5-4.14.58.58,0,0,1,.3-.26l2.28-.73a1.88,1.88,0,0,0,1.32-1.8v-2.35A1.9,1.9,0,0,0,240.43,239.32Zm-4.8-6c-.19,1.66-.71,3.07-1.23,3.37a3.1,3.1,0,0,1-3-.35c-1-.76-1.37-2.11-1-3.92h0a.62.62,0,0,1,.34-.42,14.72,14.72,0,0,1,4.51-1.53.42.42,0,0,1,.18,0A5.07,5.07,0,0,1,235.63,233.35Zm-27,5.58c0-.11.07-.29.15-.4a.4.4,0,0,1,.32-.19h.05a1.11,1.11,0,0,1,.73.71,1.52,1.52,0,0,1,.1.48C209.29,239.38,208.75,239.17,208.63,238.93Z"/><path class="cls-3" d="M223.26,227.62v-1.8c.62.05.86.33,1.07.33s.39-.34.39-.51c0-.43-.85-.62-1.46-.63v-.24a.25.25,0,0,0-.26-.21.24.24,0,0,0-.26.21V225a1.65,1.65,0,0,0-1.68,1.65c0,1.14.88,1.45,1.68,1.74v2.08c-.9-.07-1.14-.69-1.43-.69s-.41.29-.41.5c0,.44.74,1,1.84,1h0v.27a.24.24,0,0,0,.26.21.25.25,0,0,0,.26-.21v-.3a1.71,1.71,0,0,0,1.62-1.82C224.88,228.29,224,227.9,223.26,227.62Zm-.46-.17c-.47-.18-.86-.36-.86-.87s.36-.68.86-.74Zm.41,3V228.6c.44.19.78.44.78,1A.84.84,0,0,1,223.21,230.47Z"/><path class="cls-3" d="M170,160.86v-8.2a.44.44,0,0,0-.46-.43h-1.79a.45.45,0,0,0-.48.43v7.4a4.34,4.34,0,0,0-.88.12v-5.1a.45.45,0,0,0-.47-.44h-1.8a.44.44,0,0,0-.46.44V162a4.59,4.59,0,1,0,6.34-1.13Zm-1.8-7.7h.88v7.21a4.59,4.59,0,0,0-.88-.24Zm-3.62,2.4h.88v4.94a4.68,4.68,0,0,0-.88.53Zm6,11a3.66,3.66,0,1,1-4.55-5.25.52.52,0,0,0,.15-.06,3.59,3.59,0,0,1,1.25-.23l.29,0h0a3.54,3.54,0,0,1,1.57.5A3.66,3.66,0,0,1,170.53,166.52Z"/><path class="cls-3" d="M167.38,164.28a.58.58,0,0,1-.58-.59.57.57,0,0,1,.58-.58.58.58,0,0,1,.58.58.47.47,0,0,0,.47.46.47.47,0,0,0,.47-.46,1.52,1.52,0,0,0-1-1.41v-.38a.47.47,0,1,0-.93,0v.33a1.51,1.51,0,0,0-1.08,1.84,1.49,1.49,0,0,0,1.45,1.13.58.58,0,0,1,.58.58.59.59,0,0,1-.59.58.57.57,0,0,1-.57-.58.47.47,0,0,0-.47-.47.45.45,0,0,0-.45.46h0a1.52,1.52,0,0,0,1.13,1.46v.21a.47.47,0,0,0,.46.46.46.46,0,0,0,.46-.46v-.26a1.51,1.51,0,0,0-.55-2.91Z"/><path class="cls-3" d="M158.62,158.34h-1.8a.47.47,0,0,0-.47.47v7.27a.47.47,0,0,0,.47.46h1.8a.47.47,0,0,0,.47-.46v-7.27A.47.47,0,0,0,158.62,158.34Zm-.46,7.32h-.88v-6.39h.88Z"/><path class="cls-3" d="M162.28,157.28h-1.8a.47.47,0,0,0-.47.46v8.39a.47.47,0,0,0,.47.46h1.8a.47.47,0,0,0,.47-.46v-8.39A.47.47,0,0,0,162.28,157.28Zm-.46,8.38h-.88V158.2h.88Z"/><path class="cls-3" d="M155,162.33h-1.8a.46.46,0,0,0-.46.46v3.29a.46.46,0,0,0,.46.46H155a.47.47,0,0,0,.47-.46v-3.29A.47.47,0,0,0,155,162.33Zm-.46,3.33h-.88v-2.41h.88Z"/><path class="cls-3" d="M169.9,146.35h-3.17a.45.45,0,0,0-.46.45.45.45,0,0,0,.46.47h2.06l-5,5L162,150.54a.51.51,0,0,0-.66,0l-8.9,8.9a.46.46,0,0,0,0,.65.51.51,0,0,0,.33.13.49.49,0,0,0,.33-.13l8.57-8.57,1.76,1.77a.44.44,0,0,0,.33.14.47.47,0,0,0,.32-.14l5.35-5.35V150a.47.47,0,0,0,.46.47.46.46,0,0,0,.46-.47v-3.18A.47.47,0,0,0,169.9,146.35Z"/><path class="cls-3" d="M177.34,35.35a15.3,15.3,0,0,1-2.93-.28l-.8-.14a3,3,0,0,1-1.06-.44h0a7.43,7.43,0,0,1-2.09-2.11,18.09,18.09,0,0,1-1.08-1.92l0,0c-.92-1.86-1.87-4.18-2.24-5.23,0,0,0,0,0,0s-.08-.24-.11-.32c-.26-.89-2.46-8.83-.84-16.11a9,9,0,0,1,2.91-4.82.27.27,0,0,1,.08-.07,13.9,13.9,0,0,1,4-2.38l.06,0A17.09,17.09,0,0,1,175,.87a8.82,8.82,0,0,1,4.78,0,17.21,17.21,0,0,1,1.72.57l.05,0a13.9,13.9,0,0,1,4,2.38.27.27,0,0,1,.08.07,9,9,0,0,1,2.91,4.82C190.16,16,188,24,187.69,24.84c0,.08-.06.19-.1.32s0,0,0,0a54.23,54.23,0,0,1-2.24,5.23l0,0a18.09,18.09,0,0,1-1.08,1.92,7.43,7.43,0,0,1-2.09,2.11h0a3.14,3.14,0,0,1-1.06.43l-.8.14A15.23,15.23,0,0,1,177.34,35.35Zm-4.1-1.25a2,2,0,0,0,.48.16l.82.15a15.06,15.06,0,0,0,5.6,0l.82-.15a2.14,2.14,0,0,0,.49-.16,11.38,11.38,0,0,1-.79-1.2l-3.3.15h0L174,32.9A11.52,11.52,0,0,1,173.24,34.1ZM170,30.27A18.57,18.57,0,0,0,171,32a6.88,6.88,0,0,0,1.64,1.75,8.91,8.91,0,0,0,.77-1.16L170.61,29A5.92,5.92,0,0,0,170,30.27Zm11.24,2.32a10.07,10.07,0,0,0,.77,1.16A6.71,6.71,0,0,0,183.67,32a14.93,14.93,0,0,0,1-1.73,5.92,5.92,0,0,0-.59-1.29Zm-6.92-.35,3,.13,3-.13,0-.08a11.3,11.3,0,0,1-.39-1.3l-2.57.06h0l-2.57-.06a11.3,11.3,0,0,1-.39,1.3Zm6.21-1.64a11.84,11.84,0,0,0,.38,1.31l2.7-3.46c-.19-.18-.43-.37-.7-.58Zm-9.5-2.15,2.7,3.46c.12-.32.25-.77.39-1.31l-2.39-2.73C171.48,28.08,171.24,28.27,171.05,28.45Zm3.88,1.74,2.41.06,2.41-.06c-.11-.48-.22-1-.32-1.52l-2.07.11h0l-2.07-.11C175.15,29.19,175,29.71,174.93,30.19Zm5.13-1.79c.09.48.19,1,.29,1.4l2.05-2.35c-.31-.25-.65-.54-1-.87Zm-7.78-.95,2.05,2.35c.1-.45.2-.92.29-1.4l-1.33-1.82C172.93,26.91,172.59,27.2,172.28,27.45Zm12.2.94a1.71,1.71,0,0,1,.11.14,8.16,8.16,0,0,1,.48.9c.73-1.55,1.44-3.26,1.78-4.22l-.47-.28Zm-16.65-3.18c.35,1,1,2.67,1.78,4.22a6.93,6.93,0,0,1,.49-.9.71.71,0,0,1,.1-.14l-1.9-3.46ZM175.38,28l2,.11,2-.11c-.09-.46-.16-.91-.23-1.34a3.24,3.24,0,0,0-.09-.4l-1.6.15h0s0,0,0,0l-1.6-.15c0,.14-.06.27-.08.4C175.55,27.09,175.47,27.54,175.38,28Zm7.93-.69c.26.2.49.38.69.56l1.78-3.25-.92-.42ZM168.9,24.62l1.78,3.25.69-.56-1.55-3.11Zm4.87,1.48,1,1.39c.06-.32.11-.63.16-.93a4.09,4.09,0,0,1,.13-.56l-.64-.6-.49.51Zm5.84-.1c0,.19.09.38.12.56s.1.61.16.93l1-1.39-.18-.19-.48-.51Zm2.14,0c.36.35.7.64,1,.9l.74-1.47h-.07a9.87,9.87,0,0,1-1.31-.42Zm-10.58-.57.74,1.47c.32-.26.66-.55,1-.9l-.39-1a9.87,9.87,0,0,1-1.31.42Zm4.75.19,1.42.14,1.42-.14A15.27,15.27,0,0,0,177.34,23,15.27,15.27,0,0,0,175.92,25.6Zm-2.76-.9.29.75h0c.17-.19.35-.38.54-.56l-.32-.5-.09.06h0Zm7.52.19c.19.18.37.37.54.56h0l.29-.75a4.23,4.23,0,0,1-.42-.25h0l-.1-.06Zm-5.76,0,.39.37a13.15,13.15,0,0,1,.62-1.31C175.6,24.28,175.26,24.6,174.92,24.93Zm3.83-.94a13.15,13.15,0,0,1,.62,1.31l.4-.37C179.42,24.6,179.08,24.28,178.75,24Zm3.35.24a9.17,9.17,0,0,0,1.35.48,8.3,8.3,0,0,0,2.12-3.32,5.65,5.65,0,0,0,.26-.76s0,0,0,0a14.93,14.93,0,0,0,.18-5.4,17.37,17.37,0,0,1-2.34,3.63h0a18.52,18.52,0,0,1-3.78,3.63,11.3,11.3,0,0,0,1.2,1.17l0,0,.33.24h0a4.89,4.89,0,0,0,.6.33Zm-13.26-3.61a7.71,7.71,0,0,0,.27.77,8.4,8.4,0,0,0,2.12,3.32,9.2,9.2,0,0,0,1.36-.48h0a5.92,5.92,0,0,0,.61-.33h0l.33-.24,0,0a11.3,11.3,0,0,0,1.2-1.17A18.3,18.3,0,0,1,171,18.83h0a17.8,17.8,0,0,1-2.34-3.63,14.84,14.84,0,0,0,.19,5.42Zm17.8,3.68.43.26a38.35,38.35,0,0,0,.9-4.29l-.29.2Zm-19.93-4a38.35,38.35,0,0,0,.9,4.29l.43-.26-1-3.83Zm11.58,2.43c.5.43,1.21,1,1.9,1.71l.28-.44a12.16,12.16,0,0,1-1.23-1.26ZM174.21,24l.28.44c.7-.67,1.4-1.28,1.9-1.71h-.95A11.18,11.18,0,0,1,174.21,24Zm11-.36L186,24l.84-3.11a3,3,0,0,1-.44.12c-.07.23-.15.44-.24.66A15.1,15.1,0,0,1,185.2,23.61Zm-17.39-2.73.85,3.11.82-.38a16.49,16.49,0,0,1-1-1.95c-.09-.22-.17-.43-.24-.66A3,3,0,0,1,167.81,20.88ZM178.13,22l1.18,0a9.77,9.77,0,0,0,1.32-1l-.93-1.24A16.87,16.87,0,0,1,178.13,22Zm-4.08-1a11.71,11.71,0,0,0,1.32,1l1.19,0A15.81,15.81,0,0,1,175,19.81Zm4.55-2.2c-.22.85-.42,1.62-.57,2.22a21.2,21.2,0,0,0,1.2-1.78Zm-3.15.44a18.77,18.77,0,0,0,1.21,1.78c-.16-.6-.36-1.37-.58-2.22Zm1.27-.67c.24.94.45,1.78.62,2.41.17-.63.39-1.47.62-2.41l-.62,0Zm-5,0a21.67,21.67,0,0,0,1.85,2l1-1.41c-.38-.65-.79-1.42-1.23-2.32Zm8.38.55,1,1.41a21.67,21.67,0,0,0,1.85-2l-1.67-1.77C180.87,17.76,180.46,18.53,180.08,19.18Zm-12.46.88a2.25,2.25,0,0,0,.44.19,14.38,14.38,0,0,1-.23-3.37l-.41-.48Zm19.23-3.18a13.38,13.38,0,0,1-.23,3.37,1.83,1.83,0,0,0,.44-.19l.2-3.66ZM188,15.55l-.22,4,.35-.28a37,37,0,0,0,.32-4.29Zm-21.41,3.76.35.28-.22-4-.45-.53A37,37,0,0,0,166.57,19.31Zm12.2-1.15.8.55c.38-.66.79-1.43,1.23-2.34l-1.34-1C179.24,16.29,179,17.25,178.77,18.16Zm-4.89-1.79c.44.91.85,1.68,1.23,2.34l.8-.55c-.23-.91-.47-1.87-.69-2.8Zm-3.83,0c.33.52.73,1.1,1.23,1.74l1.78-1.89q-.21-.44-.42-.9c-.3-.68-.59-1.36-.85-2Zm11.58-.15,1.78,1.89a19.1,19.1,0,0,0,1.22-1.74l-1.74-3.07c-.26.66-.54,1.34-.85,2Zm-5.77-1.1c.22.95.46,1.93.69,2.84l.78,0h0l.77,0c.23-.91.47-1.89.69-2.84Zm-8.48.2.51.61c.1-1.06.25-1.85.29-2.06a17.4,17.4,0,0,0-.4-2.6Zm19.12-1.45a19,19,0,0,1,.29,2.06l.52-.61-.41-4.05A17.4,17.4,0,0,0,186.5,13.86Zm-6.88.78,1.48,1.11c.1-.23.22-.47.33-.72.36-.81.7-1.62,1-2.4L180.33,11c-.21,1.21-.41,2.32-.6,3.15C179.69,14.34,179.66,14.49,179.62,14.64Zm-7.37-2c.31.78.64,1.59,1,2.4l.34.72,1.47-1.11c0-.15-.07-.3-.11-.45-.18-.83-.39-1.94-.59-3.15Zm-3.4,1.2a9.39,9.39,0,0,0,.81,1.86l1.81-3.21c-.32-.86-.62-1.69-.88-2.47l-1.77,3.48C168.84,13.66,168.85,13.78,168.85,13.83Zm14.36-1.35L185,15.69a9.12,9.12,0,0,0,.81-1.86c0-.05,0-.17,0-.34L184.09,10C183.83,10.79,183.54,11.62,183.21,12.48Zm4.22-2.7.48,4.81.53-.62a25.44,25.44,0,0,0-.54-5A6.7,6.7,0,0,0,187.43,9.78ZM166.25,14l.52.62.48-4.81a5.53,5.53,0,0,0-.47-.77A25.42,25.42,0,0,0,166.25,14Zm11.09.47H179l.09-.4c.19-.85.4-2,.61-3.25l-2.32.1h0l-2.32-.1c.21,1.25.42,2.4.61,3.25l.09.4ZM168,9.73a6.41,6.41,0,0,1,.34.91,14.69,14.69,0,0,1,.36,1.66l1.63-3.2c-.28-.89-.51-1.69-.69-2.38Zm16.41-.63L186,12.3a14.69,14.69,0,0,1,.36-1.66,7.91,7.91,0,0,1,.34-.91l-1.63-3C184.89,7.41,184.66,8.21,184.38,9.1Zm-13.33.13c.27.85.59,1.78.95,2.74l2.23-1.68c-.19-1.17-.38-2.41-.55-3.56Zm9.4,1.06L182.68,12c.36-1,.68-1.89.95-2.74L181,6.73C180.83,7.88,180.64,9.12,180.45,10.29Zm-5.57-.17,2.46.1,2.46-.1c.2-1.25.4-2.56.58-3.76l-3-.15-3,.15C174.48,7.56,174.68,8.87,174.88,10.12Zm10.45-4.35L187.09,9a6.79,6.79,0,0,1,.6-.82,8.2,8.2,0,0,0-2.13-3.41C185.51,5,185.43,5.37,185.33,5.77ZM167,8.19a7,7,0,0,1,.59.82l1.77-3.24c-.1-.4-.18-.74-.24-1A8.15,8.15,0,0,0,167,8.19Zm14.12-2.28,2.74,2.6c.3-1,.54-1.86.73-2.56L181.44,3.6Zm-11,0c.18.7.42,1.58.72,2.56l2.74-2.6-.32-2.31Zm7.26-.42,3.11.16c.13-.91.25-1.73.34-2.38l-3.47-.1-3.46.1c.09.65.2,1.47.33,2.38l3.11-.16h0Zm4.19-2.69,3.21,2.4c.11-.45.19-.79.23-1a13.12,13.12,0,0,0-3.36-2C181.61,2.4,181.58,2.6,181.55,2.84ZM169.69,4.25c0,.2.12.54.23,1l3.21-2.4c0-.24-.06-.44-.08-.6A13.12,13.12,0,0,0,169.69,4.25Zm7.66-1.71,3.55.1c0-.28.06-.5.08-.66-.51-.19-1-.34-1.43-.47a8.29,8.29,0,0,0-4.42,0c-.43.13-.92.28-1.43.47q0,.24.09.66l3.54-.1h0Z"/><path class="cls-3" d="M240.43-15.79,239-16.25a.59.59,0,0,1-.39-.38,8.92,8.92,0,0,0-1.33-2.65,8.92,8.92,0,0,0-.9-1,12.14,12.14,0,0,0,.31-2.85c0-1.28-.27-2-.78-2.29-.27-.15-1.1-.58-5.58,1.47a1.49,1.49,0,0,0-.3.18l-.92-.23-.12,0a6.68,6.68,0,0,0,.62-2.54.5.5,0,0,0-.48-.53.51.51,0,0,0-.53.48,5.86,5.86,0,0,1-1.7,3.88,5.8,5.8,0,0,1-2.12,1.35,14.46,14.46,0,0,0-4.05,0,5.76,5.76,0,0,1-2.11-1.35,5.82,5.82,0,0,1-1.72-4.14,5.78,5.78,0,0,1,1.72-4.14,5.78,5.78,0,0,1,4.14-1.72,5.82,5.82,0,0,1,4.14,1.72,5.94,5.94,0,0,1,1.09,1.5.5.5,0,0,0,.67.23.51.51,0,0,0,.23-.68,6.9,6.9,0,0,0-1.28-1.76,6.81,6.81,0,0,0-4.85-2,6.77,6.77,0,0,0-4.85,2,6.79,6.79,0,0,0-2,4.85,6.81,6.81,0,0,0,2,4.85,6.9,6.9,0,0,0,1.21,1h0a9.12,9.12,0,0,0-.93.28.49.49,0,0,0-.32.63.5.5,0,0,0,.64.32,13.43,13.43,0,0,1,8.5,0,.41.41,0,0,0,.16,0,.5.5,0,0,0,.47-.35.49.49,0,0,0-.31-.63c-.31-.11-.62-.2-.93-.28h0a7.29,7.29,0,0,0,1.21-1,6.43,6.43,0,0,0,.87-1.08l.41.09.54.12s0,.05,0,.07a6,6,0,0,0,0,3.06,3.68,3.68,0,0,0,1.34,1.87,4.2,4.2,0,0,0,2.47.78,3.24,3.24,0,0,0,1.6-.37,3,3,0,0,0,1.18-1.67c.15.16.29.34.42.51a8.32,8.32,0,0,1,1.19,2.36,1.6,1.6,0,0,0,1,1l1.41.45a.89.89,0,0,1,.63.85v2.35a.89.89,0,0,1-.63.85l-2.27.73a1.53,1.53,0,0,0-.87.71,10.12,10.12,0,0,1-4.19,3.8.82.82,0,0,0-.41.56l-.73,3.86a.22.22,0,0,1-.22.18h-2.38a.22.22,0,0,1-.22-.18l-.4-2.14a.79.79,0,0,0-.9-.63,21.55,21.55,0,0,1-3.13.23,19.22,19.22,0,0,1-2.3-.13.8.8,0,0,0-.87.64l-.39,2a.22.22,0,0,1-.22.18h-2.37a.23.23,0,0,1-.23-.18l-.7-3.65a.76.76,0,0,0-.4-.55A8.86,8.86,0,0,1,212-13.6a9.61,9.61,0,0,1,1.21-4.91,8.72,8.72,0,0,1,3.27-3.19.51.51,0,0,0,.18-.69.51.51,0,0,0-.69-.18,9.58,9.58,0,0,0-4.85,7.14H211a2.52,2.52,0,0,0-.18-1,2,2,0,0,0-1.53-1.33,1.36,1.36,0,0,0-1.3.58,1.31,1.31,0,0,0-.25,1.44c.25.52.9.89,2,1.12l-.1.14a2.44,2.44,0,0,1-1.88,1,.53.53,0,0,0-.51.53h0a.52.52,0,0,0,.5.52h.12a3.29,3.29,0,0,0,2.56-1.42,2.65,2.65,0,0,0,.36-.6l.28,0h0c0,.27,0,.55,0,.83A10.42,10.42,0,0,0,212.49-8a10.23,10.23,0,0,0,3.86,3.56L217-.94a1.23,1.23,0,0,0,1.21,1h2.37a1.23,1.23,0,0,0,1.21-1l.35-1.84a20.23,20.23,0,0,0,2.22.12,21,21,0,0,0,3.08-.22l.37,1.94a1.22,1.22,0,0,0,1.2,1h2.38a1.23,1.23,0,0,0,1.21-1l.71-3.77a10.94,10.94,0,0,0,4.5-4.14.56.56,0,0,1,.3-.25l2.28-.73a1.9,1.9,0,0,0,1.32-1.81V-14A1.89,1.89,0,0,0,240.43-15.79Zm-4.8-6c-.19,1.66-.71,3.07-1.23,3.37a3.1,3.1,0,0,1-3-.35c-1-.76-1.37-2.11-1-3.91h0a.61.61,0,0,1,.34-.41,14.41,14.41,0,0,1,4.51-1.53l.18,0A5.07,5.07,0,0,1,235.63-21.77Zm-27,5.58c0-.1.07-.29.15-.4a.4.4,0,0,1,.32-.19h.05a1.11,1.11,0,0,1,.73.71,1.52,1.52,0,0,1,.1.48C209.29-15.74,208.75-15.94,208.63-16.19Z"/></pattern></defs><title>Ativo 6@1x</title><g id="Camada_2" data-name="Camada 2"><g id="Camada_1-2" data-name="Camada 1"><rect class="cls-5" width="1417.32" height="1463.22"/></g></g></svg>